{
  "accessors": [
    {
      "bufferView": 2,
      "componentType": 5126,
      "count": 13722,
      "max": [
        2.3790268898010254,
        1.50655996799469,
        4.954892158508301
      ],
      "min": [
        -2.3823440074920654,
        -1.3100240230560303,
        0.6151490211486816
      ],
      "type": "VEC3"
    },
    {
      "bufferView": 2,
      "byteOffset": 164664,
      "componentType": 5126,
      "count": 13722,
      "max": [
        0.9999985098838806,
        0.9999741315841675,
        0.9997443556785583
      ],
      "min": [
        -0.9998859763145447,
        -0.9999998807907104,
        -0.9995642304420471
      ],
      "type": "VEC3"
    },
    {
      "bufferView": 3,
      "componentType": 5126,
      "count": 13722,
      "max": [
        0.9999912977218628,
        0.9994650483131409,
        0.9235276579856873,
        1.0
      ],
      "min": [
        -1.0,
        -0.8563550710678101,
        -0.9999992251396179,
        1.0
      ],
      "type": "VEC4"
    },
    {
      "bufferView": 1,
      "componentType": 5126,
      "count": 13722,
      "max": [
        0.9882500171661377,
        0.9856280088424683
      ],
      "min": [
        0.5040500164031982,
        0.7464609742164612
      ],
      "type": "VEC2"
    },
    {
      "bufferView": 0,
      "componentType": 5125,
      "count": 80736,
      "type": "SCALAR"
    },
    {
      "bufferView": 2,
      "byteOffset": 329328,
      "componentType": 5126,
      "count": 20079,
      "max": [
        2.5970029830932617,
        1.7919470071792603,
        4.991825103759766
      ],
      "min": [
        -2.5034549236297607,
        -0.9554929733276367,
        0.5643180012702942
      ],
      "type": "VEC3"
    },
    {
      "bufferView": 2,
      "byteOffset": 570276,
      "componentType": 5126,
      "count": 20079,
      "max": [
        0.9998657703399658,
        0.9999673366546631,
        0.9999386668205261
      ],
      "min": [
        -0.999988853931427,
        -0.9997453689575195,
        -0.999988853931427
      ],
      "type": "VEC3"
    },
    {
      "bufferView": 3,
      "byteOffset": 219552,
      "componentType": 5126,
      "count": 20079,
      "max": [
        0.9998956918716431,
        0.9999980330467224,
        0.9999889135360718,
        1.0
      ],
      "min": [
        -0.9999534487724304,
        -0.9997298717498779,
        -0.9999793171882629,
        -1.0
      ],
      "type": "VEC4"
    },
    {
      "bufferView": 1,
      "byteOffset": 109776,
      "componentType": 5126,
      "count": 20079,
      "max": [
        0.7454739809036255,
        0.551734983921051
      ],
      "min": [
        0.007813000120222569,
        0.007813000120222569
      ],
      "type": "VEC2"
    },
    {
      "bufferView": 0,
      "byteOffset": 322944,
      "componentType": 5125,
      "count": 117504,
      "type": "SCALAR"
    },
    {
      "bufferView": 2,
      "byteOffset": 811224,
      "componentType": 5126,
      "count": 9437,
      "max": [
        2.1425890922546387,
        2.2628729343414307,
        5.572588920593262
      ],
      "min": [
        -2.1425890922546387,
        -3.4984989166259766,
        2.2252209186553955
      ],
      "type": "VEC3"
    },
    {
      "bufferView": 2,
      "byteOffset": 924468,
      "componentType": 5126,
      "count": 9437,
      "max": [
        0.9999989867210388,
        0.9999414682388306,
        0.9999945163726807
      ],
      "min": [
        -0.9999989867210388,
        -0.9999995231628418,
        -0.9999847412109375
      ],
      "type": "VEC3"
    },
    {
      "bufferView": 3,
      "byteOffset": 540816,
      "componentType": 5126,
      "count": 9437,
      "max": [
        1.0,
        0.9999459385871887,
        0.9998957514762878,
        1.0
      ],
      "min": [
        -0.9999958872795105,
        -0.9997702240943909,
        -0.9997609853744507,
        -1.0
      ],
      "type": "VEC4"
    },
    {
      "bufferView": 1,
      "byteOffset": 270408,
      "componentType": 5126,
      "count": 9437,
      "max": [
        0.9757189750671387,
        0.9921879768371582
      ],
      "min": [
        0.007813000120222569,
        0.007813000120222569
      ],
      "type": "VEC2"
    },
    {
      "bufferView": 0,
      "byteOffset": 792960,
      "componentType": 5125,
      "count": 51924,
      "type": "SCALAR"
    },
    {
      "bufferView": 2,
      "byteOffset": 1037712,
      "componentType": 5126,
      "count": 2263,
      "max": [
        1.1795120239257813,
        1.3285659551620483,
        5.242544174194336
      ],
      "min": [
        -1.1661419868469238,
        -1.3176079988479614,
        3.3663859367370605
      ],
      "type": "VEC3"
    },
    {
      "bufferView": 2,
      "byteOffset": 1064868,
      "componentType": 5126,
      "count": 2263,
      "max": [
        0.9932626485824585,
        0.9998760223388672,
        0.9987989068031311
      ],
      "min": [
        -0.99675452709198,
        -0.9999176263809204,
        -0.9999594688415527
      ],
      "type": "VEC3"
    },
    {
      "bufferView": 3,
      "byteOffset": 691808,
      "componentType": 5126,
      "count": 2263,
      "max": [
        0.9999433159828186,
        0.9988263249397278,
        0.9988516569137573,
        1.0
      ],
      "min": [
        -0.9965829849243164,
        -0.9974241852760315,
        -0.999336838722229,
        -1.0
      ],
      "type": "VEC4"
    },
    {
      "bufferView": 1,
      "byteOffset": 345904,
      "componentType": 5126,
      "count": 2263,
      "max": [
        0.9914349913597107,
        0.6594629883766174
      ],
      "min": [
        0.007813000120222569,
        0.007813000120222569
      ],
      "type": "VEC2"
    },
    {
      "bufferView": 0,
      "byteOffset": 1000656,
      "componentType": 5125,
      "count": 12144,
      "type": "SCALAR"
    }
  ],
  "asset": {
    "extras": {
      "author": "Nom (https://sketchfab.com/nomthewise)",
      "license": "CC-BY-4.0 (http://creativecommons.org/licenses/by/4.0/)",
      "source": "https://sketchfab.com/3d-models/plague-mask-d4d12479b5bb4bfaa72dbcf1955d5eb7",
      "title": "Plague Mask"
    },
    "generator": "Sketchfab-12.66.0",
    "version": "2.0"
  },
  "bufferViews": [
    {
      "buffer": 0,
      "byteLength": 1049232,
      "name": "floatBufferViews",
      "target": 34963
    },
    {
      "buffer": 0,
      "byteLength": 364008,
      "byteOffset": 1049232,
      "byteStride": 8,
      "name": "floatBufferViews",
      "target": 34962
    },
    {
      "buffer": 0,
      "byteLength": 1092024,
      "byteOffset": 1413240,
      "byteStride": 12,
      "name": "floatBufferViews",
      "target": 34962
    },
    {
      "buffer": 0,
      "byteLength": 728016,
      "byteOffset": 2505264,
      "byteStride": 16,
      "name": "floatBufferViews",
      "target": 34962
    }
  ],
  "buffers": [
    {
      "byteLength": 3233280,
      "uri": "scene.bin"
    }
  ],
  "images": [
    {
      "uri": "textures/aiStandardSurface1SG_baseColor.png"
    },
    {
      "uri": "textures/aiStandardSurface1SG_metallicRoughness.png"
    },
    {
      "uri": "textures/aiStandardSurface1SG_normal.png"
    }
  ],
  "materials": [
    {
      "doubleSided": true,
      "name": "aiStandardSurface1SG",
      "normalTexture": {
        "index": 2
      },
      "occlusionTexture": {
        "index": 1
      },
      "pbrMetallicRoughness": {
        "baseColorTexture": {
          "index": 0
        },
        "metallicRoughnessTexture": {
          "index": 1
        }
      }
    }
  ],
  "meshes": [
    {
      "name": "Object_0",
      "primitives": [
        {
          "attributes": {
            "NORMAL": 1,
            "POSITION": 0,
            "TANGENT": 2,
            "TEXCOORD_0": 3
          },
          "indices": 4,
          "material": 0,
          "mode": 4
        }
      ]
    },
    {
      "name": "Object_1",
      "primitives": [
        {
          "attributes": {
            "NORMAL": 6,
            "POSITION": 5,
            "TANGENT": 7,
            "TEXCOORD_0": 8
          },
          "indices": 9,
          "material": 0,
          "mode": 4
        }
      ]
    },
    {
      "name": "Object_2",
      "primitives": [
        {
          "attributes": {
            "NORMAL": 11,
            "POSITION": 10,
            "TANGENT": 12,
            "TEXCOORD_0": 13
          },
          "indices": 14,
          "material": 0,
          "mode": 4
        }
      ]
    },
    {
      "name": "Object_3",
      "primitives": [
        {
          "attributes": {
            "NORMAL": 16,
            "POSITION": 15,
            "TANGENT": 17,
            "TEXCOORD_0": 18
          },
          "indices": 19,
          "material": 0,
          "mode": 4
        }
      ]
    }
  ],
  "nodes": [
    {
      "children": [
        1
      ],
      "matrix": [
        1.0,
        0.0,
        0.0,
        0.0,
        0.0,
        2.220446049250313e-16,
        -1.0,
        0.0,
        0.0,
        1.0,
        2.220446049250313e-16,
        0.0,
        0.0,
        0.0,
        0.0,
        1.0
      ],
      "name": "Sketchfab_model"
    },
    {
      "children": [
        2,
        3,
        4,
        5
      ],
      "name": "PlagueMask_sketchfab.obj.cleaner.materialmerger.gles"
    },
    {
      "mesh": 0,
      "name": "Object_2"
    },
    {
      "mesh": 1,
      "name": "Object_3"
    },
    {
      "mesh": 2,
      "name": "Object_4"
    },
    {
      "mesh": 3,
      "name": "Object_5"
    }
  ],
  "samplers": [
    {
      "magFilter": 9729,
      "minFilter": 9987,
      "wrapS": 10497,
      "wrapT": 10497
    }
  ],
  "scene": 0,
  "scenes": [
    {
      "name": "Sketchfab_Scene",
      "nodes": [
        0
      ]
    }
  ],
  "textures": [
    {
      "sampler": 0,
      "source": 0
    },
    {
      "sampler": 0,
      "source": 1
    },
    {
      "sampler": 0,
      "source": 2
    }
  ]
}
