{
  "accessors": [
    {
      "bufferView": 2,
      "componentType": 5126,
      "count": 94,
      "max": [
        0.4645729959011078,
        0.45048800110816956,
        0.2227730005979538
      ],
      "min": [
        -0.4645729959011078,
        0.09225980192422867,
        -0.22499699890613556
      ],
      "type": "VEC3"
    },
    {
      "bufferView": 2,
      "byteOffset": 1128,
      "componentType": 5126,
      "count": 94,
      "max": [
        0.9292349815368652,
        0.9712357521057129,
        0.9073693156242371
      ],
      "min": [
        -0.9292349815368652,
        -0.7431594133377075,
        -0.9504546523094177
      ],
      "type": "VEC3"
    },
    {
      "bufferView": 3,
      "componentType": 5126,
      "count": 94,
      "max": [
        0.9578760266304016,
        0.9848729968070984,
        0.8379290103912354,
        1.0
      ],
      "min": [
        -0.9578760266304016,
        -0.8542529940605164,
        -0.9728350043296814,
        -1.0
      ],
      "type": "VEC4"
    },
    {
      "bufferView": 1,
      "componentType": 5126,
      "count": 94,
      "max": [
        0.24240000545978546,
        0.9847000241279602
      ],
      "min": [
        0.01850000023841858,
        0.6696000099182129
      ],
      "type": "VEC2"
    },
    {
      "bufferView": 0,
      "componentType": 5125,
      "count": 252,
      "type": "SCALAR"
    },
    {
      "bufferView": 2,
      "byteOffset": 2256,
      "componentType": 5126,
      "count": 858,
      "max": [
        0.866877019405365,
        0.4263029992580414,
        0.09866870194673538
      ],
      "min": [
        -0.866877019405365,
        -1.0,
        -0.5560759902000427
      ],
      "type": "VEC3"
    },
    {
      "bufferView": 2,
      "byteOffset": 12552,
      "componentType": 5126,
      "count": 858,
      "max": [
        0.9940091371536255,
        0.9729236364364624,
        0.9978721141815186
      ],
      "min": [
        -0.9940091371536255,
        -0.9869816303253174,
        -0.9969521164894104
      ],
      "type": "VEC3"
    },
    {
      "bufferView": 3,
      "byteOffset": 1504,
      "componentType": 5126,
      "count": 858,
      "max": [
        0.9970309734344482,
        0.9771180152893066,
        0.9947149753570557,
        1.0
      ],
      "min": [
        -0.9970309734344482,
        -0.9986940026283264,
        -0.9998970031738281,
        -1.0
      ],
      "type": "VEC4"
    },
    {
      "bufferView": 1,
      "byteOffset": 752,
      "componentType": 5126,
      "count": 858,
      "max": [
        0.6082000136375427,
        0.6319000124931335
      ],
      "min": [
        0.013399999588727951,
        0.004699999932199717
      ],
      "type": "VEC2"
    },
    {
      "bufferView": 0,
      "byteOffset": 1008,
      "componentType": 5125,
      "count": 3660,
      "type": "SCALAR"
    },
    {
      "bufferView": 2,
      "byteOffset": 22848,
      "componentType": 5126,
      "count": 242,
      "max": [
        0.6976460218429565,
        0.4874289929866791,
        0.0681523010134697
      ],
      "min": [
        -0.6976460218429565,
        0.0888620987534523,
        -0.33344098925590515
      ],
      "type": "VEC3"
    },
    {
      "bufferView": 2,
      "byteOffset": 25752,
      "componentType": 5126,
      "count": 242,
      "max": [
        0.9928972125053406,
        0.9760472178459167,
        0.9565961360931396
      ],
      "min": [
        -0.9928972125053406,
        -0.9939751029014587,
        -0.9746464490890503
      ],
      "type": "VEC3"
    },
    {
      "bufferView": 3,
      "byteOffset": 15232,
      "componentType": 5126,
      "count": 242,
      "max": [
        0.9909600019454956,
        0.9709190130233765,
        0.9672880172729492,
        1.0
      ],
      "min": [
        -0.9909600019454956,
        -0.9880520105361938,
        -0.9873020052909851,
        -1.0
      ],
      "type": "VEC4"
    },
    {
      "bufferView": 1,
      "byteOffset": 7616,
      "componentType": 5126,
      "count": 242,
      "max": [
        0.9911999702453613,
        0.8651000261306763
      ],
      "min": [
        0.7562999725341797,
        0.1436000019311905
      ],
      "type": "VEC2"
    },
    {
      "bufferView": 0,
      "byteOffset": 15648,
      "componentType": 5125,
      "count": 660,
      "type": "SCALAR"
    },
    {
      "bufferView": 2,
      "byteOffset": 28656,
      "componentType": 5126,
      "count": 128,
      "max": [
        0.19872699677944183,
        -0.23952899873256683,
        0.06852299720048904
      ],
      "min": [
        -0.19872699677944183,
        -0.475722998380661,
        -0.22218599915504456
      ],
      "type": "VEC3"
    },
    {
      "bufferView": 2,
      "byteOffset": 30192,
      "componentType": 5126,
      "count": 128,
      "max": [
        0.9572186470031738,
        0.945975124835968,
        0.9436043500900269
      ],
      "min": [
        -0.9572186470031738,
        -0.8482761979103088,
        -0.9865954518318176
      ],
      "type": "VEC3"
    },
    {
      "bufferView": 3,
      "byteOffset": 19104,
      "componentType": 5126,
      "count": 128,
      "max": [
        0.9663010239601135,
        0.9834949970245361,
        0.9136940240859985,
        1.0
      ],
      "min": [
        -0.9663010239601135,
        -0.7077289819717407,
        -0.9843639731407166,
        -1.0
      ],
      "type": "VEC4"
    },
    {
      "bufferView": 1,
      "byteOffset": 9552,
      "componentType": 5126,
      "count": 128,
      "max": [
        0.17409999668598175,
        0.7576000094413757
      ],
      "min": [
        0.00930000003427267,
        0.4832000136375427
      ],
      "type": "VEC2"
    },
    {
      "bufferView": 0,
      "byteOffset": 18288,
      "componentType": 5125,
      "count": 336,
      "type": "SCALAR"
    },
    {
      "bufferView": 2,
      "byteOffset": 31728,
      "componentType": 5126,
      "count": 124,
      "max": [
        0.10637500137090683,
        0.7449650168418884,
        0.24831700325012207
      ],
      "min": [
        -0.10637500137090683,
        0.6560720205307007,
        0.1631300002336502
      ],
      "type": "VEC3"
    },
    {
      "bufferView": 2,
      "byteOffset": 33216,
      "componentType": 5126,
      "count": 124,
      "max": [
        0.9490428566932678,
        0.9317054152488708,
        0.9080476760864258
      ],
      "min": [
        -0.9490428566932678,
        -0.9846697449684143,
        -0.9135982990264893
      ],
      "type": "VEC3"
    },
    {
      "bufferView": 3,
      "byteOffset": 21152,
      "componentType": 5126,
      "count": 124,
      "max": [
        0.9233090281486511,
        0.650646984577179,
        -0.3781540095806122,
        1.0
      ],
      "min": [
        -0.9233090281486511,
        -0.6068090200424194,
        -0.9967610239982605,
        -1.0
      ],
      "type": "VEC4"
    },
    {
      "bufferView": 1,
      "byteOffset": 10576,
      "componentType": 5126,
      "count": 124,
      "max": [
        0.3564999997615814,
        0.8240000009536743
      ],
      "min": [
        0.2508000135421753,
        0.6359999775886536
      ],
      "type": "VEC2"
    },
    {
      "bufferView": 0,
      "byteOffset": 19632,
      "componentType": 5125,
      "count": 384,
      "type": "SCALAR"
    },
    {
      "bufferView": 2,
      "byteOffset": 34704,
      "componentType": 5126,
      "count": 2468,
      "max": [
        0.34735599160194397,
        1.0,
        0.5560759902000427
      ],
      "min": [
        -0.34735599160194397,
        -0.8481900095939636,
        -0.37174099683761597
      ],
      "type": "VEC3"
    },
    {
      "bufferView": 2,
      "byteOffset": 64320,
      "componentType": 5126,
      "count": 2468,
      "max": [
        0.9997721314430237,
        0.9972134828567505,
        0.999995768070221
      ],
      "min": [
        -0.9997721314430237,
        -0.999770998954773,
        -0.9998416304588318
      ],
      "type": "VEC3"
    },
    {
      "bufferView": 3,
      "byteOffset": 23136,
      "componentType": 5126,
      "count": 2468,
      "max": [
        0.9999989867210388,
        0.999783992767334,
        0.9976999759674072,
        1.0
      ],
      "min": [
        -0.9999989867210388,
        -0.9813249707221985,
        -0.9997079968452454,
        -1.0
      ],
      "type": "VEC4"
    },
    {
      "bufferView": 1,
      "byteOffset": 11568,
      "componentType": 5126,
      "count": 2468,
      "max": [
        0.982699990272522,
        0.9891999959945679
      ],
      "min": [
        0.31029999256134033,
        0.019300000742077827
      ],
      "type": "VEC2"
    },
    {
      "bufferView": 0,
      "byteOffset": 21168,
      "componentType": 5125,
      "count": 11952,
      "type": "SCALAR"
    }
  ],
  "asset": {
    "extras": {
      "author": "Moon dong hwa (https://sketchfab.com/moondonghwa)",
      "license": "CC-BY-NC-4.0 (http://creativecommons.org/licenses/by-nc/4.0/)",
      "source": "https://sketchfab.com/3d-models/zbrush-for-concept-mech-design-dver-a421f87ebeb94b6684c28769b028dd4a",
      "title": "ZBrush for Concept - Mech Design D.ver"
    },
    "generator": "Sketchfab-12.68.0",
    "version": "2.0"
  },
  "bufferViews": [
    {
      "buffer": 0,
      "byteLength": 68976,
      "name": "floatBufferViews",
      "target": 34963
    },
    {
      "buffer": 0,
      "byteLength": 31312,
      "byteOffset": 68976,
      "byteStride": 8,
      "name": "floatBufferViews",
      "target": 34962
    },
    {
      "buffer": 0,
      "byteLength": 93936,
      "byteOffset": 100288,
      "byteStride": 12,
      "name": "floatBufferViews",
      "target": 34962
    },
    {
      "buffer": 0,
      "byteLength": 62624,
      "byteOffset": 194224,
      "byteStride": 16,
      "name": "floatBufferViews",
      "target": 34962
    }
  ],
  "buffers": [
    {
      "byteLength": 256848,
      "uri": "scene.bin"
    }
  ],
  "images": [
    {
      "uri": "textures/default_baseColor.jpeg"
    },
    {
      "uri": "textures/default_metallicRoughness.png"
    },
    {
      "uri": "textures/default_emissive.jpeg"
    },
    {
      "uri": "textures/default_normal.jpeg"
    }
  ],
  "materials": [
    {
      "doubleSided": true,
      "emissiveFactor": [
        1.0,
        1.0,
        1.0
      ],
      "emissiveTexture": {
        "index": 2
      },
      "name": "default",
      "normalTexture": {
        "index": 3
      },
      "occlusionTexture": {
        "index": 1
      },
      "pbrMetallicRoughness": {
        "baseColorTexture": {
          "index": 0
        },
        "metallicRoughnessTexture": {
          "index": 1
        }
      }
    }
  ],
  "meshes": [
    {
      "name": "defaultMaterial",
      "primitives": [
        {
          "attributes": {
            "NORMAL": 1,
            "POSITION": 0,
            "TANGENT": 2,
            "TEXCOORD_0": 3
          },
          "indices": 4,
          "material": 0,
          "mode": 4
        }
      ]
    },
    {
      "name": "defaultMaterial",
      "primitives": [
        {
          "attributes": {
            "NORMAL": 6,
            "POSITION": 5,
            "TANGENT": 7,
            "TEXCOORD_0": 8
          },
          "indices": 9,
          "material": 0,
          "mode": 4
        }
      ]
    },
    {
      "name": "defaultMaterial",
      "primitives": [
        {
          "attributes": {
            "NORMAL": 11,
            "POSITION": 10,
            "TANGENT": 12,
            "TEXCOORD_0": 13
          },
          "indices": 14,
          "material": 0,
          "mode": 4
        }
      ]
    },
    {
      "name": "defaultMaterial",
      "primitives": [
        {
          "attributes": {
            "NORMAL": 16,
            "POSITION": 15,
            "TANGENT": 17,
            "TEXCOORD_0": 18
          },
          "indices": 19,
          "material": 0,
          "mode": 4
        }
      ]
    },
    {
      "name": "defaultMaterial",
      "primitives": [
        {
          "attributes": {
            "NORMAL": 21,
            "POSITION": 20,
            "TANGENT": 22,
            "TEXCOORD_0": 23
          },
          "indices": 24,
          "material": 0,
          "mode": 4
        }
      ]
    },
    {
      "name": "defaultMaterial",
      "primitives": [
        {
          "attributes": {
            "NORMAL": 26,
            "POSITION": 25,
            "TANGENT": 27,
            "TEXCOORD_0": 28
          },
          "indices": 29,
          "material": 0,
          "mode": 4
        }
      ]
    }
  ],
  "nodes": [
    {
      "children": [
        1
      ],
      "matrix": [
        1.0,
        0.0,
        0.0,
        0.0,
        0.0,
        2.220446049250313e-16,
        -1.0,
        0.0,
        0.0,
        1.0,
        2.220446049250313e-16,
        0.0,
        0.0,
        0.0,
        0.0,
        1.0
      ],
      "name": "Sketchfab_model"
    },
    {
      "children": [
        2,
        4,
        6,
        8,
        10,
        12
      ],
      "matrix": [
        1.0,
        0.0,
        0.0,
        0.0,
        0.0,
        -4.371139006309477e-08,
        0.999999999999999,
        0.0,
        0.0,
        -0.999999999999999,
        -4.371139006309477e-08,
        0.0,
        0.0,
        0.0,
        0.0,
        1.0
      ],
      "name": "Collada visual scene group"
    },
    {
      "children": [
        3
      ],
      "name": "g"
    },
    {
      "mesh": 0,
      "name": "defaultMaterial"
    },
    {
      "children": [
        5
      ],
      "name": "g"
    },
    {
      "mesh": 1,
      "name": "defaultMaterial"
    },
    {
      "children": [
        7
      ],
      "name": "g"
    },
    {
      "mesh": 2,
      "name": "defaultMaterial"
    },
    {
      "children": [
        9
      ],
      "name": "g"
    },
    {
      "mesh": 3,
      "name": "defaultMaterial"
    },
    {
      "children": [
        11
      ],
      "name": "g"
    },
    {
      "mesh": 4,
      "name": "defaultMaterial"
    },
    {
      "children": [
        13
      ],
      "name": "g"
    },
    {
      "mesh": 5,
      "name": "defaultMaterial"
    }
  ],
  "samplers": [
    {
      "magFilter": 9729,
      "minFilter": 9987,
      "wrapS": 10497,
      "wrapT": 10497
    }
  ],
  "scene": 0,
  "scenes": [
    {
      "name": "Sketchfab_Scene",
      "nodes": [
        0
      ]
    }
  ],
  "textures": [
    {
      "sampler": 0,
      "source": 0
    },
    {
      "sampler": 0,
      "source": 1
    },
    {
      "sampler": 0,
      "source": 2
    },
    {
      "sampler": 0,
      "source": 3
    }
  ]
}
